# xmcd
#
# Track frame offsets:
#	150
#	15389
#	29983
#	47259
#	61923
#	75925
#	89892
#	102971
#	114239
#	131306
#	142696
#	159223
#	172703
#	187210
#	207725
#	223190
#	234841
#	247607
#	262306
#	273783
#	288046
#	299140
#	313055
#	323139
#	334668
#	346998
#
# Disc length: 4771 seconds
#
# Revision: 0
# Processed by: cddbd v1.5.2PL0 Copyright (c) Steve Scherf et al.
# Submitted via: EZCDAudioConverter 4.0.5.1
#
DISCID=7112a11a
DTITLE=Teodoro and Sampaio - Virus da Paixão
DYEAR=2001
DGENRE=Sertanejo
TTITLE0=Cowboy Conquistador
TTITLE1=Nossa Festa de Rodeio
TTITLE2=Do Iapoque ao Chuí
TTITLE3=Água no Leite
TTITLE4=Potranca Valente
TTITLE5=Viola em Noite de Lua
TTITLE6=Peão Japonês
TTITLE7=No Fundo do Poço
TTITLE8=Minha Terra Distante
TTITLE9=Dinheiro Emprestado
TTITLE10=Lição de Moral
TTITLE11=Sangue Caipira
TTITLE12=Zé da Silva brasileiro
TTITLE13=Desafio
TTITLE14=A Solteirona
TTITLE15=Amigo Descarado
TTITLE16=Virus da Paixão
TTITLE17=A Empregada
TTITLE18=Whisky com Guaraná
TTITLE19=Tadinha da minha Secretária
TTITLE20=Silicone
TTITLE21=Já Fui Bom Nisso
TTITLE22=Menino Sapeca
TTITLE23=O Beijo do Adeus
TTITLE24=Cachorro Louco
TTITLE25=Agarradinho
EXTD=
EXTT0=
EXTT1=
EXTT2=
EXTT3=
EXTT4=
EXTT5=
EXTT6=
EXTT7=
EXTT8=
EXTT9=
EXTT10=
EXTT11=
EXTT12=
EXTT13=
EXTT14=
EXTT15=
EXTT16=
EXTT17=
EXTT18=
EXTT19=
EXTT20=
EXTT21=
EXTT22=
EXTT23=
EXTT24=
EXTT25=
PLAYORDER=
